<svg xmlns="http://www.w3.org/2000/svg" xmlns:xlink="http://www.w3.org/1999/xlink" viewBox="0 0 486.99 60.16"><defs><style>.cls-1{fill:#231f20;}.cls-2{fill:url(#linear-gradient);}.cls-3{fill:url(#linear-gradient-2);}.cls-4{fill:url(#linear-gradient-3);}.cls-5{fill:url(#linear-gradient-4);}.cls-6{fill:url(#linear-gradient-5);}</style><linearGradient id="linear-gradient" x1="6.99" y1="56.41" x2="147.27" y2="10.6" gradientUnits="userSpaceOnUse"><stop offset="0" stop-color="#2615a6"/><stop offset="0.49" stop-color="#75006d"/><stop offset="1" stop-color="#cd0000"/></linearGradient><linearGradient id="linear-gradient-2" x1="4.73" y1="49.49" x2="145" y2="3.68" xlink:href="#linear-gradient"/><linearGradient id="linear-gradient-3" x1="6.55" y1="55.08" x2="146.83" y2="9.27" xlink:href="#linear-gradient"/><linearGradient id="linear-gradient-4" x1="4.07" y1="47.48" x2="144.35" y2="1.67" xlink:href="#linear-gradient"/><linearGradient id="linear-gradient-5" x1="2.25" y1="41.89" x2="142.52" y2="-3.92" xlink:href="#linear-gradient"/></defs><title>Asset 3</title><g id="Layer_2" data-name="Layer 2"><g id="Layer_1-2" data-name="Layer 1"><path class="cls-1" d="M181.08,17.1h7.68l8.77,24.32,8.73-24.32h7.68L201.75,48.73h-8.44Z"/><path class="cls-1" d="M236.7,43.27H222.57l-2,5.46h-7.4L225.41,17.1h8.44L246,48.73h-7.35Zm-12.33-5.83h10.48l-5.22-14.51Z"/><path class="cls-1" d="M249.31,17.1h6.83V35.88c0,4.41,2.41,7.44,7.35,7.44s7.25-3,7.25-7.44V17.1h6.83v19c0,7.87-4.51,13.22-14.08,13.22s-14.18-5.4-14.18-13.18Z"/><path class="cls-1" d="M285.72,17.1h6.74V42.8h13.37v5.93H285.72Z"/><path class="cls-1" d="M315,23h-9.25V17.1H331V23h-9.2v25.7H315Z"/><path class="cls-1" d="M338.35,39.15a13.88,13.88,0,0,0,10,4.27c3.7,0,5.5-1.76,5.5-3.56,0-2.37-2.75-3.18-6.4-4-5.16-1.19-11.8-2.61-11.8-9.67,0-5.27,4.55-9.53,12-9.53,5,0,9.2,1.51,12.33,4.41L356.27,26a13.48,13.48,0,0,0-9-3.46c-3,0-4.65,1.32-4.65,3.22,0,2.13,2.66,2.8,6.31,3.65,5.21,1.19,11.85,2.75,11.85,9.77,0,5.78-4.12,10.14-12.66,10.14-6.07,0-10.43-2-13.42-5Z"/><path class="cls-1" d="M367.18,17.1H382c6.88,0,10.62,4.65,10.62,10.2S388.8,37.39,382,37.39h-8.06V48.73h-6.73Zm13.89,5.79h-7.16v8.72h7.16a4.37,4.37,0,1,0,0-8.72Z"/><path class="cls-1" d="M398.66,17.1H421v5.79H405.4v6.87h15.31v5.78H405.4v7.35H421v5.84H398.66Z"/><path class="cls-1" d="M428.2,17.1h22.38v5.79H434.93v6.87h15.32v5.78H434.93v7.35h15.65v5.84H428.2Z"/><path class="cls-1" d="M457.74,17.1h12.47c9.91,0,16.78,6.31,16.78,15.84s-6.87,15.79-16.78,15.79H457.74Zm12.47,25.7a9.47,9.47,0,0,0,9.91-9.86c0-5.6-3.41-9.91-9.91-9.91h-5.74V42.8Z"/><circle class="cls-2" cx="154.71" cy="8.17" r="8.17"/><path class="cls-3" d="M23.76,31.52,2.68,47.81a6.9,6.9,0,0,0,8.43,10.92L31.73,42.8Z"/><path class="cls-4" d="M143.27,17a6.89,6.89,0,0,0-9.67-1.25L97.75,43.41,70.36,4.61a6.9,6.9,0,0,0-9.85-1.48L39.9,19.06l8,11.28L63.25,18.45,90.64,57.24a6.88,6.88,0,0,0,9.84,1.49L142,26.67A6.89,6.89,0,0,0,143.27,17Z"/><path class="cls-5" d="M114.87,4.37a6.89,6.89,0,0,0-9.67-1.24L84.59,19.06l8,11.28,21.08-16.29A6.9,6.9,0,0,0,114.87,4.37Z"/><path class="cls-6" d="M68.45,31.52,53.07,43.41,25.68,4.61a6.9,6.9,0,1,0-11.27,8L46,57.24a6.89,6.89,0,0,0,4.61,2.85,7,7,0,0,0,5.24-1.36L76.41,42.8Z"/></g></g></svg>